<?xml version="1.0" standalone="no"?>
<!DOCTYPE svg PUBLIC "-//W3C//DTD SVG 20010904//EN"
 "http://www.w3.org/TR/2001/REC-SVG-20010904/DTD/svg10.dtd">
<svg version="1.0" xmlns="http://www.w3.org/2000/svg"
 width="612.000000pt" height="612.000000pt" viewBox="0 0 612.000000 612.000000"
 preserveAspectRatio="xMidYMid meet">
<metadata>
Created by potrace 1.16, written by Peter Selinger 2001-2019
</metadata>
<g transform="translate(0.000000,612.000000) scale(0.100000,-0.100000)"
fill="#000000" stroke="none">
<path d="M1520 4686 c0 -22 5 -24 91 -33 98 -11 128 -26 166 -82 32 -47 35
-131 31 -966 -3 -738 -3 -751 -24 -790 -29 -55 -87 -83 -187 -91 -77 -7 -78
-7 -75 -33 l3 -26 520 0 520 0 3 26 c3 25 2 26 -73 32 -119 10 -178 48 -196
124 -5 21 -9 199 -9 396 l0 357 64 0 64 0 79 -112 c84 -120 152 -218 529 -763
297 -429 280 -402 262 -423 -8 -9 -97 -118 -198 -242 -313 -383 -421 -499
-508 -544 -19 -10 -66 -25 -105 -35 -65 -17 -72 -21 -75 -45 l-3 -26 395 0
396 0 0 24 c0 22 -5 25 -57 31 -94 10 -135 25 -175 65 -80 80 -55 128 282 536
68 82 125 150 129 151 8 3 5 7 223 -318 102 -152 188 -289 190 -304 14 -69
-26 -109 -123 -122 -49 -7 -54 -11 -57 -36 l-3 -27 500 0 501 0 0 25 c0 14 -6
27 -12 29 -7 2 -31 9 -54 15 -100 27 -116 47 -607 778 l-237 352 206 248 c419
506 437 523 578 539 53 6 56 8 56 35 l0 29 -375 0 -375 0 0 -29 c0 -27 2 -28
56 -34 81 -8 124 -34 153 -91 21 -41 22 -52 13 -84 -19 -64 -85 -161 -233
-343 -140 -174 -143 -177 -159 -156 -51 66 -643 893 -647 904 -3 7 2 13 11 13
9 0 52 14 96 31 149 57 253 157 307 295 24 61 27 82 27 184 -1 95 -5 125 -24
175 -69 180 -223 310 -415 349 -148 31 -273 36 -855 36 l-590 0 0 -24z m1135
-110 c163 -51 242 -174 252 -391 6 -122 -5 -192 -41 -271 -69 -148 -190 -203
-448 -204 l-128 0 0 446 0 446 158 -5 c104 -3 174 -10 207 -21z"/>
</g>
</svg>
