<?xml version="1.0" standalone="no"?>
<!DOCTYPE svg PUBLIC "-//W3C//DTD SVG 20010904//EN"
 "http://www.w3.org/TR/2001/REC-SVG-20010904/DTD/svg10.dtd">
<svg version="1.0" xmlns="http://www.w3.org/2000/svg"
 width="1248.000000pt" height="558.000000pt" viewBox="0 0 1248.000000 558.000000"
 preserveAspectRatio="xMidYMid meet">
<metadata>
Created by potrace 1.16, written by Peter Selinger 2001-2019
</metadata>
<g transform="translate(0.000000,558.000000) scale(0.100000,-0.100000)"
fill="#000000" stroke="none">
<path d="M10300 5184 c-114 -24 -224 -86 -315 -178 -44 -45 -100 -111 -124
-148 l-43 -68 -28 20 c-48 35 -192 99 -260 116 -85 22 -235 22 -319 1 -34 -10
-104 -38 -155 -64 -72 -37 -108 -65 -174 -131 l-83 -83 -52 11 c-85 19 -274
24 -402 10 -179 -18 -646 -118 -770 -165 -277 -104 -439 -374 -408 -679 l9
-84 -81 -7 c-219 -18 -425 -88 -577 -197 l-47 -34 -78 19 -78 19 -35 60 c-47
82 -161 186 -257 236 -105 54 -187 74 -303 74 -116 0 -198 -20 -301 -73 -195
-102 -324 -296 -345 -521 -6 -65 -9 -76 -34 -93 -26 -19 -36 -19 -145 -11
-197 15 -425 -28 -597 -115 -156 -78 -323 -228 -399 -357 l-35 -60 -45 19
c-139 63 -338 94 -501 79 -53 -5 -108 -12 -121 -15 -21 -6 -24 -2 -35 43 -48
208 -228 386 -453 448 -48 14 -100 18 -214 18 -172 0 -164 2 -850 -165 -385
-94 -417 -103 -525 -155 -102 -51 -123 -66 -205 -148 -138 -139 -188 -252
-188 -431 -1 -110 19 -192 74 -304 102 -208 326 -341 573 -341 42 0 76 -3 76
-7 0 -17 211 -893 223 -929 25 -68 73 -156 121 -220 76 -101 168 -168 293
-211 68 -23 94 -27 198 -27 78 1 144 7 189 18 168 41 313 144 401 286 15 25
29 46 30 48 1 1 42 -11 91 -27 131 -44 216 -54 394 -48 205 8 373 49 528 132
62 33 72 35 158 35 151 0 284 43 401 131 l52 39 58 -12 c86 -17 312 -14 419 5
258 47 471 156 612 314 l58 65 65 -36 c175 -96 422 -103 615 -16 133 60 258
169 309 271 l25 48 37 -16 c224 -94 559 -92 851 6 99 33 232 97 299 142 l42
29 83 -21 c115 -30 298 -23 406 15 145 50 270 149 347 274 21 34 40 62 42 62
3 0 17 -8 31 -19 82 -57 203 -101 317 -115 121 -15 316 36 426 110 50 33 53
34 172 38 140 4 214 23 317 83 64 38 173 138 240 222 l35 44 61 -31 c101 -51
163 -62 351 -62 194 0 247 10 368 69 260 128 395 364 365 637 -28 245 -111
365 -468 678 -104 91 -122 111 -116 130 4 11 37 98 74 191 136 340 161 474
124 652 -24 120 -66 196 -159 289 -132 133 -303 204 -490 203 -44 0 -109 -7
-145 -15z m240 -504 c69 -35 84 -83 59 -188 -6 -26 -76 -212 -155 -413 -79
-201 -144 -368 -144 -371 0 -3 98 -92 218 -199 257 -229 429 -394 447 -429 21
-41 28 -108 15 -140 -14 -33 -71 -76 -121 -90 -88 -26 -159 18 -449 279 -135
121 -248 217 -252 213 -3 -4 -52 -126 -108 -272 -145 -376 -164 -413 -237
-461 -42 -28 -139 -26 -184 4 -41 27 -69 79 -69 127 0 48 35 171 66 232 21 42
140 339 229 574 l23 62 -266 238 c-327 292 -378 342 -403 400 -26 57 -14 98
40 147 108 98 199 70 417 -125 163 -146 242 -216 305 -269 l46 -39 37 98 c158
415 238 574 315 624 36 25 121 24 171 -2z m-1880 -511 c191 -32 365 -219 416
-445 40 -183 -18 -365 -148 -461 -27 -19 -48 -38 -48 -41 0 -7 301 -370 401
-483 68 -77 89 -116 89 -165 0 -30 -7 -44 -39 -74 -76 -73 -164 -75 -253 -7
-34 26 -337 365 -499 556 l-28 35 -93 -26 c-51 -14 -126 -34 -165 -43 -40 -10
-73 -19 -73 -21 0 -3 27 -118 59 -257 79 -333 83 -361 70 -410 -22 -82 -113
-137 -202 -121 -47 7 -84 41 -110 100 -9 22 -98 381 -198 799 -158 666 -180
767 -174 815 10 96 38 114 260 165 442 100 559 114 735 84z m-2848 -784 c50
-33 81 -97 125 -264 18 -68 34 -125 36 -127 1 -2 43 8 92 22 114 32 208 36
254 9 64 -38 91 -138 56 -205 -18 -35 -100 -76 -230 -116 -49 -15 -91 -28 -93
-29 -1 -1 22 -92 52 -201 91 -337 130 -519 131 -612 0 -81 -1 -85 -30 -108
-41 -34 -126 -57 -175 -49 -53 9 -81 33 -118 102 -35 66 -46 109 -133 498 -34
154 -64 282 -66 284 -1 2 -40 -4 -85 -15 -52 -12 -120 -19 -180 -19 -89 0 -98
2 -123 25 -56 52 -68 117 -34 187 27 55 64 75 217 115 64 16 118 31 120 33 1
1 -11 55 -28 119 -33 131 -40 248 -16 294 47 90 142 114 228 57z m1480 -160
c108 -22 194 -69 269 -145 55 -56 70 -79 95 -146 35 -95 39 -199 11 -251 -34
-64 -140 -105 -462 -178 -82 -18 -178 -39 -213 -46 -69 -13 -71 -17 -33 -83
29 -52 82 -71 201 -71 125 0 188 18 325 95 122 69 168 84 212 69 67 -22 91
-104 54 -184 -81 -178 -483 -325 -752 -275 -188 35 -328 192 -390 435 -18 71
-23 117 -23 220 0 150 17 212 85 321 123 194 375 292 621 239z m-4689 -459
c49 -21 76 -56 83 -109 15 -107 -38 -142 -316 -212 -102 -25 -190 -47 -197
-50 -8 -3 -6 -24 8 -77 10 -41 50 -213 89 -384 39 -170 100 -433 137 -584 73
-307 81 -382 48 -440 -45 -77 -182 -107 -245 -54 -17 15 -39 43 -49 63 -10 20
-90 335 -176 701 -87 366 -161 669 -165 673 -4 5 -43 -1 -86 -12 -278 -70
-449 -67 -489 8 -50 98 -12 174 116 230 44 19 542 144 879 220 190 43 306 52
363 27z m2350 -61 c139 -36 223 -141 183 -227 -33 -70 -113 -87 -243 -54 -129
34 -242 11 -283 -56 -29 -49 -26 -84 13 -123 39 -39 102 -55 215 -55 42 0 122
-5 177 -10 121 -12 205 -48 260 -112 114 -134 96 -353 -40 -489 -59 -59 -118
-91 -230 -125 -124 -37 -305 -40 -410 -7 -96 30 -151 68 -176 121 -39 80 -11
176 58 203 15 6 48 0 105 -17 100 -31 260 -43 327 -24 51 13 106 63 117 104 3
15 1 40 -7 57 -20 50 -60 61 -266 70 -197 9 -242 17 -317 57 -111 61 -161 157
-154 301 5 108 30 165 108 241 131 129 380 193 563 145z m-1430 -430 c96 -20
181 -68 259 -147 56 -55 77 -87 122 -181 39 -82 86 -156 167 -263 126 -167
149 -209 148 -274 0 -54 -15 -84 -55 -111 -62 -40 -153 -17 -239 62 l-43 40
-27 -47 c-84 -143 -222 -220 -436 -244 -185 -21 -307 16 -414 124 -114 115
-167 259 -168 456 -1 126 15 205 57 288 52 102 145 189 264 248 126 61 238 76
365 49z"/>
<path d="M8335 3845 c-194 -40 -295 -68 -295 -80 0 -22 102 -450 109 -457 6
-7 354 73 404 93 42 17 114 96 133 145 23 60 14 149 -19 207 -52 88 -179 124
-332 92z"/>
<path d="M7098 2966 c-58 -21 -125 -64 -147 -95 -48 -67 -77 -171 -48 -171 15
0 490 112 497 117 12 11 -40 77 -84 107 -87 57 -145 68 -218 42z"/>
<path d="M3309 1965 c-174 -64 -237 -243 -149 -421 51 -105 126 -142 260 -131
83 7 117 23 164 79 114 133 74 387 -74 465 -50 27 -141 30 -201 8z"/>
</g>
</svg>
