<?xml version="1.0" standalone="no"?>
<!DOCTYPE svg PUBLIC "-//W3C//DTD SVG 20010904//EN"
 "http://www.w3.org/TR/2001/REC-SVG-20010904/DTD/svg10.dtd">
<svg version="1.0" xmlns="http://www.w3.org/2000/svg"
 width="775.000000pt" height="619.000000pt" viewBox="0 0 775.000000 619.000000"
 preserveAspectRatio="xMidYMid meet">
<metadata>
Created by potrace 1.16, written by Peter Selinger 2001-2019
</metadata>
<g transform="translate(0.000000,619.000000) scale(0.100000,-0.100000)"
fill="#000000" stroke="none">
<path d="M3115 5683 c-52 -7 -184 -43 -238 -64 -199 -78 -344 -189 -500 -384
-302 -375 -690 -632 -985 -652 -100 -7 -139 -22 -148 -59 -11 -44 4 -167 32
-255 96 -308 347 -546 711 -672 179 -63 394 -104 606 -115 l122 -7 2 -245 c3
-269 6 -284 61 -307 27 -11 37 -11 66 1 19 8 39 23 45 34 8 14 11 245 11 746
l0 725 157 107 c87 59 185 122 218 140 106 58 228 78 334 53 55 -12 180 -70
204 -93 16 -16 17 -92 17 -1302 l0 -1286 29 -29 c37 -37 79 -38 120 -3 l31 26
0 1288 c0 1139 2 1290 15 1304 9 8 44 29 78 46 170 84 316 79 479 -14 35 -19
128 -80 208 -134 l145 -99 5 -544 c5 -560 6 -578 46 -593 36 -14 85 -6 109 19
21 21 25 33 25 88 0 75 2 77 91 77 247 0 623 89 831 197 334 172 557 488 558
791 0 95 -16 106 -163 116 -295 21 -681 284 -989 671 -269 340 -684 500 -1042
402 -164 -45 -356 -148 -441 -237 -36 -38 -54 -38 -90 0 -16 17 -61 52 -99 79
-206 141 -459 212 -661 184z m255 -204 c92 -21 222 -79 297 -130 26 -18 86
-69 131 -113 76 -73 88 -81 123 -81 35 0 47 8 111 71 90 87 135 122 219 168
84 46 191 83 297 101 72 13 93 13 166 0 238 -42 447 -168 588 -354 217 -287
479 -504 774 -643 47 -22 82 -44 78 -48 -22 -21 -179 -43 -335 -47 -185 -6
-299 7 -454 52 -194 56 -317 118 -525 265 -327 231 -546 264 -828 123 l-93
-47 -67 36 c-157 85 -308 113 -453 83 -118 -23 -220 -75 -420 -210 -236 -160
-393 -232 -621 -282 -120 -26 -445 -26 -576 1 -51 10 -95 22 -97 26 -3 4 47
33 110 64 226 111 477 304 630 486 162 193 189 222 257 281 132 114 260 184
378 208 30 6 64 13 75 15 35 8 150 -4 235 -25z m-650 -1474 c0 -298 -2 -336
-16 -342 -20 -7 -248 13 -363 33 -354 60 -632 206 -776 408 -53 74 -119 210
-105 214 5 2 45 -8 87 -22 116 -39 243 -64 386 -78 214 -20 467 13 687 91 47
16 88 30 93 30 4 1 7 -150 7 -334z m2470 315 c86 -34 274 -80 387 -95 239 -32
493 -6 727 75 87 30 89 29 65 -32 -67 -173 -227 -337 -427 -437 -92 -46 -249
-96 -392 -125 -131 -27 -388 -53 -414 -43 -14 6 -16 47 -16 342 0 208 4 335
10 335 5 0 32 -9 60 -20z"/>
<path d="M4969 3071 c-32 -33 -37 -67 -14 -110 16 -33 33 -41 81 -41 81 0 116
102 53 154 -41 35 -83 34 -120 -3z"/>
<path d="M1095 2777 c-3 -7 -4 -96 -3 -197 l3 -185 175 0 175 0 0 195 0 195
-173 3 c-135 2 -174 0 -177 -11z"/>
<path d="M3020 2590 l0 -200 175 0 175 0 0 200 0 200 -175 0 -175 0 0 -200z"/>
<path d="M4993 2720 c-37 -15 -50 -50 -57 -148 -22 -312 -186 -600 -440 -774
-84 -58 -227 -123 -324 -148 -45 -11 -130 -24 -189 -29 -98 -7 -108 -10 -130
-35 -42 -49 -20 -125 41 -146 42 -14 210 2 320 30 401 102 724 405 849 795 36
110 57 232 57 326 0 67 -3 82 -22 103 -26 29 -72 40 -105 26z"/>
<path d="M1520 2150 l0 -470 526 2 527 3 39 65 c54 92 168 198 262 244 l76 38
0 294 0 294 -715 0 -715 0 0 -470z"/>
<path d="M1095 2307 c-3 -7 -4 -96 -3 -197 l3 -185 175 0 175 0 0 195 0 195
-173 3 c-135 2 -174 0 -177 -11z"/>
<path d="M3020 2185 l0 -135 88 6 c81 6 186 -8 245 -31 16 -7 17 4 17 144 l0
151 -175 0 -175 0 0 -135z"/>
<path d="M3014 1970 c-102 -27 -164 -61 -243 -135 -225 -213 -230 -566 -11
-785 109 -109 239 -164 390 -164 180 0 342 84 447 232 64 89 94 176 100 287 9
170 -41 299 -162 420 -82 82 -144 118 -251 145 -95 25 -177 25 -270 0z m199
-376 c173 -113 207 -140 207 -161 0 -19 -374 -266 -397 -261 -17 3 -18 19 -21
253 -1 137 0 255 3 262 10 28 52 9 208 -93z"/>
<path d="M3070 1441 c0 -89 2 -161 5 -161 9 0 235 153 235 159 0 5 -86 63
-211 144 l-29 19 0 -161z"/>
<path d="M1095 1837 c-3 -7 -4 -96 -3 -197 l3 -185 175 0 175 0 0 195 0 195
-173 3 c-135 2 -174 0 -177 -11z"/>
<path d="M1520 1140 l0 -470 713 2 712 3 3 86 3 85 -53 22 c-73 31 -179 111
-229 174 -51 65 -103 171 -125 258 -17 66 -16 252 1 293 7 16 -21 17 -509 17
l-516 0 0 -470z"/>
<path d="M1095 1367 c-3 -7 -4 -96 -3 -197 l3 -185 175 0 175 0 0 195 0 195
-173 3 c-135 2 -174 0 -177 -11z"/>
<path d="M1095 897 c-3 -7 -4 -96 -3 -197 l3 -185 175 0 175 0 0 195 0 195
-173 3 c-135 2 -174 0 -177 -11z"/>
<path d="M3300 833 c-30 -11 -84 -16 -162 -16 l-118 0 0 -154 0 -153 175 0
175 0 0 170 c0 188 4 178 -70 153z"/>
</g>
</svg>
